<svg viewBox="0 0 260 84" preserveAspectRatio="xMidYMid meet" role="presentation" aria-hidden="true">
  <line x1="27" y1="60" x2="54" y2="46" stroke="var(--text-muted)" stroke-width="1.5"></line>
  <line x1="77" y1="60" x2="54" y2="46" stroke="var(--text-muted)" stroke-width="1.5"></line>
  <line x1="127" y1="60" x2="154" y2="46" stroke="var(--text-muted)" stroke-width="1.5"></line>
  <line x1="177" y1="60" x2="154" y2="46" stroke="var(--text-muted)" stroke-width="1.5"></line>
  <line x1="54" y1="38" x2="121" y2="20" stroke="var(--text-muted)" stroke-width="1.5"></line>
  <line x1="154" y1="38" x2="139" y2="20" stroke="var(--text-muted)" stroke-width="1.5"></line>

  <rect x="20" y="60" width="16" height="14" rx="2" fill="var(--series-1)"></rect>
  <rect x="70" y="60" width="16" height="14" rx="2" fill="var(--series-2)"></rect>
  <rect x="120" y="60" width="16" height="14" rx="2" fill="var(--series-3)"></rect>
  <rect x="170" y="60" width="16" height="14" rx="2" fill="var(--series-4)"></rect>

  <rect x="49" y="34" width="18" height="15" rx="2" fill="none" stroke="var(--border)" stroke-width="1" transform="translate(3,3)"></rect>
  <rect x="49" y="34" width="18" height="15" rx="2" fill="var(--text-muted)"></rect>
  <rect x="149" y="34" width="18" height="15" rx="2" fill="none" stroke="var(--border)" stroke-width="1" transform="translate(3,3)"></rect>
  <rect x="149" y="34" width="18" height="15" rx="2" fill="var(--text-muted)"></rect>

  <rect x="119" y="10" width="22" height="17" rx="2" fill="none" stroke="var(--border)" stroke-width="1" transform="translate(3,3)"></rect>
  <rect x="119" y="10" width="22" height="17" rx="2" fill="none" stroke="var(--border)" stroke-width="1" transform="translate(1.5,1.5)"></rect>
  <rect x="119" y="10" width="22" height="17" rx="2" fill="var(--series-1)"></rect>
</svg>
