<svg viewBox="0 0 260 84" preserveAspectRatio="xMidYMid meet" role="presentation" aria-hidden="true">
  <rect x="8.0" y="8.0" width="29.0" height="15.5" rx="1.5" fill="var(--seq-500)"></rect>
  <rect x="38.5" y="8.0" width="29.0" height="15.5" rx="1.5" fill="var(--seq-300)"></rect>
  <rect x="69.0" y="8.0" width="29.0" height="15.5" rx="1.5" fill="var(--seq-200)"></rect>
  <rect x="99.5" y="8.0" width="29.0" height="15.5" rx="1.5" fill="var(--seq-200)"></rect>
  <rect x="130.0" y="8.0" width="29.0" height="15.5" rx="1.5" fill="var(--seq-400)"></rect>
  <rect x="160.5" y="8.0" width="29.0" height="15.5" rx="1.5" fill="var(--seq-200)"></rect>
  <rect x="191.0" y="8.0" width="29.0" height="15.5" rx="1.5" fill="var(--seq-200)"></rect>
  <rect x="221.5" y="8.0" width="29.0" height="15.5" rx="1.5" fill="var(--seq-200)"></rect>
  <rect x="8.0" y="25.0" width="29.0" height="15.5" rx="1.5" fill="var(--seq-200)"></rect>
  <rect x="38.5" y="25.0" width="29.0" height="15.5" rx="1.5" fill="var(--seq-500)"></rect>
  <rect x="69.0" y="25.0" width="29.0" height="15.5" rx="1.5" fill="var(--seq-200)"></rect>
  <rect x="99.5" y="25.0" width="29.0" height="15.5" rx="1.5" fill="var(--seq-200)"></rect>
  <rect x="130.0" y="25.0" width="29.0" height="15.5" rx="1.5" fill="var(--seq-200)"></rect>
  <rect x="160.5" y="25.0" width="29.0" height="15.5" rx="1.5" fill="var(--seq-200)"></rect>
  <rect x="191.0" y="25.0" width="29.0" height="15.5" rx="1.5" fill="var(--seq-200)"></rect>
  <rect x="221.5" y="25.0" width="29.0" height="15.5" rx="1.5" fill="var(--seq-200)"></rect>
  <rect x="8.0" y="42.0" width="29.0" height="15.5" rx="1.5" fill="var(--seq-200)" stroke="var(--series-2)" stroke-width="1"></rect>
  <rect x="38.5" y="42.0" width="29.0" height="15.5" rx="1.5" fill="var(--seq-600)" stroke="var(--series-2)" stroke-width="1"></rect>
  <rect x="69.0" y="42.0" width="29.0" height="15.5" rx="1.5" fill="var(--seq-200)" stroke="var(--series-2)" stroke-width="1"></rect>
  <rect x="99.5" y="42.0" width="29.0" height="15.5" rx="1.5" fill="var(--seq-200)" stroke="var(--series-2)" stroke-width="1"></rect>
  <rect x="130.0" y="42.0" width="29.0" height="15.5" rx="1.5" fill="var(--seq-200)" stroke="var(--series-2)" stroke-width="1"></rect>
  <rect x="160.5" y="42.0" width="29.0" height="15.5" rx="1.5" fill="var(--seq-200)" stroke="var(--series-2)" stroke-width="1"></rect>
  <rect x="191.0" y="42.0" width="29.0" height="15.5" rx="1.5" fill="var(--seq-200)" stroke="var(--series-2)" stroke-width="1"></rect>
  <rect x="221.5" y="42.0" width="29.0" height="15.5" rx="1.5" fill="var(--seq-200)" stroke="var(--series-2)" stroke-width="1"></rect>
  <rect x="8.0" y="59.0" width="29.0" height="15.5" rx="1.5" fill="var(--seq-300)"></rect>
  <rect x="38.5" y="59.0" width="29.0" height="15.5" rx="1.5" fill="var(--seq-200)"></rect>
  <rect x="69.0" y="59.0" width="29.0" height="15.5" rx="1.5" fill="var(--seq-500)"></rect>
  <rect x="99.5" y="59.0" width="29.0" height="15.5" rx="1.5" fill="var(--seq-200)"></rect>
  <rect x="130.0" y="59.0" width="29.0" height="15.5" rx="1.5" fill="var(--seq-200)"></rect>
  <rect x="160.5" y="59.0" width="29.0" height="15.5" rx="1.5" fill="var(--seq-300)"></rect>
  <rect x="191.0" y="59.0" width="29.0" height="15.5" rx="1.5" fill="var(--seq-200)"></rect>
  <rect x="221.5" y="59.0" width="29.0" height="15.5" rx="1.5" fill="var(--seq-200)"></rect>
</svg>
